<svg width="80" height="80" viewBox="0 0 80 80" fill="none" xmlns="http://www.w3.org/2000/svg">
<rect opacity="0.8" width="80" height="80" rx="20" fill="#DBFFE9"/>
<path d="M29 27H50.6667C51.9927 27 53.2645 27.5268 54.2022 28.4645C55.1399 29.4021 55.6667 30.6739 55.6667 32V47C55.6667 48.3261 55.1399 49.5979 54.2022 50.5355C53.2645 51.4732 51.9927 52 50.6667 52H29C27.6739 52 26.4021 51.4732 25.4645 50.5355C24.5268 49.5979 24 48.3261 24 47V32C24 30.6739 24.5268 29.4021 25.4645 28.4645C26.4021 27.5268 27.6739 27 29 27ZM29 28.6667C28.1159 28.6667 27.2681 29.0179 26.643 29.643C26.0179 30.2681 25.6667 31.1159 25.6667 32V33.6667H54V32C54 31.1159 53.6488 30.2681 53.0237 29.643C52.3986 29.0179 51.5507 28.6667 50.6667 28.6667H29ZM25.6667 47C25.6667 47.8841 26.0179 48.7319 26.643 49.357C27.2681 49.9821 28.1159 50.3333 29 50.3333H50.6667C51.5507 50.3333 52.3986 49.9821 53.0237 49.357C53.6488 48.7319 54 47.8841 54 47V38.6667H25.6667V47ZM29 45.3333H35.6667V47H29V45.3333ZM39 45.3333H44V47H39V45.3333ZM25.6667 35.3333V37H54V35.3333H25.6667Z" fill="#124F48"/>
<path d="M29 27H50.6667C51.9927 27 53.2645 27.5268 54.2022 28.4645C55.1399 29.4021 55.6667 30.6739 55.6667 32V47C55.6667 48.3261 55.1399 49.5979 54.2022 50.5355C53.2645 51.4732 51.9927 52 50.6667 52H29C27.6739 52 26.4021 51.4732 25.4645 50.5355C24.5268 49.5979 24 48.3261 24 47V32C24 30.6739 24.5268 29.4021 25.4645 28.4645C26.4021 27.5268 27.6739 27 29 27ZM29 28.6667C28.1159 28.6667 27.2681 29.0179 26.643 29.643C26.0179 30.2681 25.6667 31.1159 25.6667 32V33.6667H54V32C54 31.1159 53.6488 30.2681 53.0237 29.643C52.3986 29.0179 51.5507 28.6667 50.6667 28.6667H29ZM25.6667 47C25.6667 47.8841 26.0179 48.7319 26.643 49.357C27.2681 49.9821 28.1159 50.3333 29 50.3333H50.6667C51.5507 50.3333 52.3986 49.9821 53.0237 49.357C53.6488 48.7319 54 47.8841 54 47V38.6667H25.6667V47ZM29 45.3333H35.6667V47H29V45.3333ZM39 45.3333H44V47H39V45.3333ZM25.6667 35.3333V37H54V35.3333H25.6667Z" stroke="black"/>
</svg>
