<svg width="80" height="80" viewBox="0 0 80 80" fill="none" xmlns="http://www.w3.org/2000/svg">
<rect opacity="0.7" width="80" height="80" rx="20" fill="#FFF7CA"/>
<path d="M48.2381 31.381V46.881C48.2381 51.3686 44.6067 55 40.119 55C35.6314 55 32 51.3686 32 46.881V29.9048C32 26.6424 34.6424 24 37.9048 24C41.1671 24 43.8095 26.6424 43.8095 29.9048V45.4048C43.8095 46.3835 43.4207 47.3222 42.7286 48.0143C42.0365 48.7064 41.0978 49.0952 40.119 49.0952C39.1403 49.0952 38.2016 48.7064 37.5095 48.0143C36.8174 47.3222 36.4286 46.3835 36.4286 45.4048V31.381H37.9048V45.4048C37.9048 45.992 38.1381 46.5552 38.5533 46.9705C38.9686 47.3858 39.5318 47.619 40.119 47.619C40.7063 47.619 41.2695 47.3858 41.6848 46.9705C42.1 46.5552 42.3333 45.992 42.3333 45.4048V29.9048C42.3333 28.7302 41.8668 27.6038 41.0362 26.7733C40.2057 25.9428 39.0793 25.4762 37.9048 25.4762C36.7302 25.4762 35.6038 25.9428 34.7733 26.7733C33.9428 27.6038 33.4762 28.7302 33.4762 29.9048V46.881C33.4762 48.6427 34.1761 50.3324 35.4218 51.5782C36.6676 52.8239 38.3573 53.5238 40.119 53.5238C41.8808 53.5238 43.5705 52.8239 44.8163 51.5782C46.062 50.3324 46.7619 48.6427 46.7619 46.881V31.381H48.2381Z" fill="#FF9900"/>
</svg>
