<svg width="83" height="83" viewBox="0 0 83 83" fill="none" xmlns="http://www.w3.org/2000/svg">
<g filter="url(#filter0_d)">
<rect x="4" width="75" height="75" rx="10" fill="#124F48"/>
</g>
<path d="M32.8555 31H21.1602V28.6797L26.6797 22.7969C27.4375 21.9688 27.9961 21.2461 28.3555 20.6289C28.7227 20.0117 28.9062 19.4258 28.9062 18.8711C28.9062 18.1133 28.7148 17.5195 28.332 17.0898C27.9492 16.6523 27.4023 16.4336 26.6914 16.4336C25.9258 16.4336 25.3203 16.6992 24.875 17.2305C24.4375 17.7539 24.2188 18.4453 24.2188 19.3047H20.8203C20.8203 18.2656 21.0664 17.3164 21.5586 16.457C22.0586 15.5977 22.7617 14.9258 23.668 14.4414C24.5742 13.9492 25.6016 13.7031 26.75 13.7031C28.5078 13.7031 29.8711 14.125 30.8398 14.9688C31.8164 15.8125 32.3047 17.0039 32.3047 18.543C32.3047 19.3867 32.0859 20.2461 31.6484 21.1211C31.2109 21.9961 30.4609 23.0156 29.3984 24.1797L25.5195 28.2695H32.8555V31ZM46.6367 31H34.9414V28.6797L40.4609 22.7969C41.2188 21.9688 41.7773 21.2461 42.1367 20.6289C42.5039 20.0117 42.6875 19.4258 42.6875 18.8711C42.6875 18.1133 42.4961 17.5195 42.1133 17.0898C41.7305 16.6523 41.1836 16.4336 40.4727 16.4336C39.707 16.4336 39.1016 16.6992 38.6562 17.2305C38.2188 17.7539 38 18.4453 38 19.3047H34.6016C34.6016 18.2656 34.8477 17.3164 35.3398 16.457C35.8398 15.5977 36.543 14.9258 37.4492 14.4414C38.3555 13.9492 39.3828 13.7031 40.5312 13.7031C42.2891 13.7031 43.6523 14.125 44.6211 14.9688C45.5977 15.8125 46.0859 17.0039 46.0859 18.543C46.0859 19.3867 45.8672 20.2461 45.4297 21.1211C44.9922 21.9961 44.2422 23.0156 43.1797 24.1797L39.3008 28.2695H46.6367V31ZM21.5234 61V43.9375H26.7734C28.2734 43.9375 29.6133 44.2773 30.793 44.957C31.9805 45.6289 32.9062 46.5898 33.5703 47.8398C34.2344 49.082 34.5664 50.4961 34.5664 52.082V52.8672C34.5664 54.4531 34.2383 55.8633 33.582 57.0977C32.9336 58.332 32.0156 59.2891 30.8281 59.9688C29.6406 60.6484 28.3008 60.9922 26.8086 61H21.5234ZM25.0391 46.7852V58.1758H26.7383C28.1133 58.1758 29.1641 57.7266 29.8906 56.8281C30.6172 55.9297 30.9883 54.6445 31.0039 52.9727V52.0703C31.0039 50.3359 30.6445 49.0234 29.9258 48.1328C29.207 47.2344 28.1562 46.7852 26.7734 46.7852H25.0391ZM42.7461 61.2344C40.8867 61.2344 39.3711 60.6641 38.1992 59.5234C37.0352 58.3828 36.4531 56.8633 36.4531 54.9648V54.6367C36.4531 53.3633 36.6992 52.2266 37.1914 51.2266C37.6836 50.2188 38.3789 49.4453 39.2773 48.9062C40.1836 48.3594 41.2148 48.0859 42.3711 48.0859C44.1055 48.0859 45.4688 48.6328 46.4609 49.7266C47.4609 50.8203 47.9609 52.3711 47.9609 54.3789V55.7617H39.8867C39.9961 56.5898 40.3242 57.2539 40.8711 57.7539C41.4258 58.2539 42.125 58.5039 42.9688 58.5039C44.2734 58.5039 45.293 58.0312 46.0273 57.0859L47.6914 58.9492C47.1836 59.668 46.4961 60.2305 45.6289 60.6367C44.7617 61.0352 43.8008 61.2344 42.7461 61.2344ZM42.3594 50.8281C41.6875 50.8281 41.1406 51.0547 40.7188 51.5078C40.3047 51.9609 40.0391 52.6094 39.9219 53.4531H44.6328V53.1836C44.6172 52.4336 44.4141 51.8555 44.0234 51.4492C43.6328 51.0352 43.0781 50.8281 42.3594 50.8281ZM55.168 58.5039C55.793 58.5039 56.3008 58.332 56.6914 57.9883C57.082 57.6445 57.2852 57.1875 57.3008 56.6172H60.4766C60.4688 57.4766 60.2344 58.2656 59.7734 58.9844C59.3125 59.6953 58.6797 60.25 57.875 60.6484C57.0781 61.0391 56.1953 61.2344 55.2266 61.2344C53.4141 61.2344 51.9844 60.6602 50.9375 59.5117C49.8906 58.3555 49.3672 56.7617 49.3672 54.7305V54.5078C49.3672 52.5547 49.8867 50.9961 50.9258 49.832C51.9648 48.668 53.3906 48.0859 55.2031 48.0859C56.7891 48.0859 58.0586 48.5391 59.0117 49.4453C59.9727 50.3438 60.4609 51.543 60.4766 53.043H57.3008C57.2852 52.3867 57.082 51.8555 56.6914 51.4492C56.3008 51.0352 55.7852 50.8281 55.1445 50.8281C54.3555 50.8281 53.7578 51.1172 53.3516 51.6953C52.9531 52.2656 52.7539 53.1953 52.7539 54.4844V54.8359C52.7539 56.1406 52.9531 57.0781 53.3516 57.6484C53.75 58.2188 54.3555 58.5039 55.168 58.5039Z" fill="white"/>
<defs>
<filter id="filter0_d" x="0" y="0" width="83" height="83" filterUnits="userSpaceOnUse" color-interpolation-filters="sRGB">
<feFlood flood-opacity="0" result="BackgroundImageFix"/>
<feColorMatrix in="SourceAlpha" type="matrix" values="0 0 0 0 0 0 0 0 0 0 0 0 0 0 0 0 0 0 127 0"/>
<feOffset dy="4"/>
<feGaussianBlur stdDeviation="2"/>
<feColorMatrix type="matrix" values="0 0 0 0 0 0 0 0 0 0 0 0 0 0 0 0 0 0 0.25 0"/>
<feBlend mode="normal" in2="BackgroundImageFix" result="effect1_dropShadow"/>
<feBlend mode="normal" in="SourceGraphic" in2="effect1_dropShadow" result="shape"/>
</filter>
</defs>
</svg>
