<svg width="75" height="75" viewBox="0 0 75 75" fill="none" xmlns="http://www.w3.org/2000/svg">
<rect width="75" height="75" rx="10" fill="#124F48"/>
<path d="M25.3867 31H22V17.9453L17.957 19.1992V16.4453L25.0234 13.9141H25.3867V31ZM40.1289 13.7617V16.5508H39.8008C38.2695 16.5742 37.0352 16.9727 36.0977 17.7461C35.168 18.5195 34.6094 19.5938 34.4219 20.9688C35.3281 20.0469 36.4727 19.5859 37.8555 19.5859C39.3398 19.5859 40.5195 20.1172 41.3945 21.1797C42.2695 22.2422 42.707 23.6406 42.707 25.375C42.707 26.4844 42.4648 27.4883 41.9805 28.3867C41.5039 29.2852 40.8242 29.9844 39.9414 30.4844C39.0664 30.9844 38.0742 31.2344 36.9648 31.2344C35.168 31.2344 33.7148 30.6094 32.6055 29.3594C31.5039 28.1094 30.9531 26.4414 30.9531 24.3555V23.1367C30.9531 21.2852 31.3008 19.6523 31.9961 18.2383C32.6992 16.8164 33.7031 15.7188 35.0078 14.9453C36.3203 14.1641 37.8398 13.7695 39.5664 13.7617H40.1289ZM36.8242 22.3047C36.2773 22.3047 35.7812 22.4492 35.3359 22.7383C34.8906 23.0195 34.5625 23.3945 34.3516 23.8633V24.8945C34.3516 26.0273 34.5742 26.9141 35.0195 27.5547C35.4648 28.1875 36.0898 28.5039 36.8945 28.5039C37.6211 28.5039 38.207 28.2188 38.6523 27.6484C39.1055 27.0703 39.332 26.3242 39.332 25.4102C39.332 24.4805 39.1055 23.7305 38.6523 23.1602C38.1992 22.5898 37.5898 22.3047 36.8242 22.3047ZM17.5234 61V43.9375H22.7734C24.2734 43.9375 25.6133 44.2773 26.793 44.957C27.9805 45.6289 28.9062 46.5898 29.5703 47.8398C30.2344 49.082 30.5664 50.4961 30.5664 52.082V52.8672C30.5664 54.4531 30.2383 55.8633 29.582 57.0977C28.9336 58.332 28.0156 59.2891 26.8281 59.9688C25.6406 60.6484 24.3008 60.9922 22.8086 61H17.5234ZM21.0391 46.7852V58.1758H22.7383C24.1133 58.1758 25.1641 57.7266 25.8906 56.8281C26.6172 55.9297 26.9883 54.6445 27.0039 52.9727V52.0703C27.0039 50.3359 26.6445 49.0234 25.9258 48.1328C25.207 47.2344 24.1562 46.7852 22.7734 46.7852H21.0391ZM38.7461 61.2344C36.8867 61.2344 35.3711 60.6641 34.1992 59.5234C33.0352 58.3828 32.4531 56.8633 32.4531 54.9648V54.6367C32.4531 53.3633 32.6992 52.2266 33.1914 51.2266C33.6836 50.2188 34.3789 49.4453 35.2773 48.9062C36.1836 48.3594 37.2148 48.0859 38.3711 48.0859C40.1055 48.0859 41.4688 48.6328 42.4609 49.7266C43.4609 50.8203 43.9609 52.3711 43.9609 54.3789V55.7617H35.8867C35.9961 56.5898 36.3242 57.2539 36.8711 57.7539C37.4258 58.2539 38.125 58.5039 38.9688 58.5039C40.2734 58.5039 41.293 58.0312 42.0273 57.0859L43.6914 58.9492C43.1836 59.668 42.4961 60.2305 41.6289 60.6367C40.7617 61.0352 39.8008 61.2344 38.7461 61.2344ZM38.3594 50.8281C37.6875 50.8281 37.1406 51.0547 36.7188 51.5078C36.3047 51.9609 36.0391 52.6094 35.9219 53.4531H40.6328V53.1836C40.6172 52.4336 40.4141 51.8555 40.0234 51.4492C39.6328 51.0352 39.0781 50.8281 38.3594 50.8281ZM51.168 58.5039C51.793 58.5039 52.3008 58.332 52.6914 57.9883C53.082 57.6445 53.2852 57.1875 53.3008 56.6172H56.4766C56.4688 57.4766 56.2344 58.2656 55.7734 58.9844C55.3125 59.6953 54.6797 60.25 53.875 60.6484C53.0781 61.0391 52.1953 61.2344 51.2266 61.2344C49.4141 61.2344 47.9844 60.6602 46.9375 59.5117C45.8906 58.3555 45.3672 56.7617 45.3672 54.7305V54.5078C45.3672 52.5547 45.8867 50.9961 46.9258 49.832C47.9648 48.668 49.3906 48.0859 51.2031 48.0859C52.7891 48.0859 54.0586 48.5391 55.0117 49.4453C55.9727 50.3438 56.4609 51.543 56.4766 53.043H53.3008C53.2852 52.3867 53.082 51.8555 52.6914 51.4492C52.3008 51.0352 51.7852 50.8281 51.1445 50.8281C50.3555 50.8281 49.7578 51.1172 49.3516 51.6953C48.9531 52.2656 48.7539 53.1953 48.7539 54.4844V54.8359C48.7539 56.1406 48.9531 57.0781 49.3516 57.6484C49.75 58.2188 50.3555 58.5039 51.168 58.5039Z" fill="white"/>
</svg>
