<svg width="80" height="80" viewBox="0 0 80 80" fill="none" xmlns="http://www.w3.org/2000/svg">
<rect width="80" height="80" rx="20" fill="#FFE9E0"/>
<path d="M40.7895 25H42.3684C45.7185 25 48.9314 26.3308 51.3003 28.6997C53.6692 31.0686 55 34.2815 55 37.6316V39.2105H40.7895V25ZM42.3684 37.6316H53.4211C53.4211 34.7002 52.2566 31.889 50.1838 29.8162C48.111 27.7434 45.2998 26.5789 42.3684 26.5789V37.6316ZM37.6316 42.3684H50.2632C50.2632 44.8667 49.5223 47.3089 48.1344 49.3861C46.7464 51.4634 44.7736 53.0824 42.4655 54.0385C40.1574 54.9945 37.6176 55.2447 35.1673 54.7573C32.717 54.2699 30.4663 53.0668 28.6997 51.3003C26.9332 49.5337 25.7301 47.283 25.2427 44.8327C24.7553 42.3824 25.0055 39.8426 25.9615 37.5345C26.9176 35.2264 28.5366 33.2536 30.6139 31.8656C32.6911 30.4777 35.1333 29.7368 37.6316 29.7368V42.3684ZM36.0526 43.9474V31.4263C33.2911 31.831 30.7848 33.2651 29.0368 35.4409C27.2887 37.6167 26.4283 40.3731 26.6281 43.1569C26.828 45.9408 28.0733 48.546 30.1142 50.4498C32.1552 52.3536 34.8406 53.415 37.6316 53.421C40.2898 53.4214 42.859 52.4639 44.8687 50.724C46.8783 48.984 48.1936 46.5782 48.5737 43.9474H36.0526Z" fill="#FF6107"/>
</svg>
