<svg width="18" height="18" viewBox="0 0 18 18" fill="none" xmlns="http://www.w3.org/2000/svg">
<path d="M11.0287 8.86125C10.7837 8.7031 10.5185 8.57855 10.2403 8.49094C9.90551 8.38214 9.56538 8.29046 9.22125 8.21625C9.00792 8.16712 8.79568 8.11336 8.58469 8.055C8.45608 8.01879 8.33165 7.96914 8.21344 7.90687C8.10778 7.85545 8.01417 7.78229 7.93875 7.69219C7.87696 7.61345 7.84448 7.51568 7.84688 7.41562C7.84688 7.23937 7.94063 7.09125 8.13281 6.96187C8.33156 6.82781 8.60062 6.76031 8.93062 6.76031C9.28687 6.76031 9.54562 6.82031 9.70031 6.94125C9.85969 7.06594 9.99844 7.24312 10.1128 7.46812C10.2122 7.64437 10.3012 7.76625 10.3884 7.84312C10.4812 7.9275 10.6144 7.97156 10.785 7.97156C10.9734 7.97156 11.1319 7.90406 11.2584 7.76812C11.379 7.64632 11.447 7.48204 11.4478 7.31062C11.4478 7.13437 11.3981 6.95156 11.3034 6.77062C11.1911 6.56925 11.039 6.39286 10.8562 6.25219C10.629 6.07644 10.3712 5.94422 10.0959 5.86219C9.74717 5.75837 9.38445 5.70904 9.02063 5.71594C8.505 5.71594 8.05031 5.78906 7.66781 5.93531C7.28063 6.08344 6.97969 6.29906 6.77344 6.57562C6.5661 6.852 6.456 7.18921 6.46031 7.53469C6.46031 7.90969 6.56062 8.22844 6.75844 8.48344C6.9525 8.73469 7.21969 8.93531 7.54969 9.08063C7.87406 9.22125 8.27906 9.34594 8.75812 9.45187C9.10875 9.52687 9.39375 9.6 9.60281 9.6675C9.80344 9.73125 9.96938 9.825 10.095 9.94594C10.1546 10.0044 10.2013 10.0748 10.2318 10.1525C10.2623 10.2302 10.2761 10.3135 10.2722 10.3969C10.2722 10.6331 10.1606 10.8253 9.93188 10.9884C9.69656 11.1534 9.38437 11.2359 9.00375 11.2359C8.72625 11.2359 8.50219 11.1956 8.33437 11.1131C8.18277 11.044 8.05022 10.9392 7.94812 10.8075C7.84174 10.6569 7.75303 10.4946 7.68375 10.3237C7.6254 10.1694 7.53276 10.0302 7.41281 9.91687C7.30075 9.81958 7.15616 9.76803 7.00781 9.7725C6.91941 9.76972 6.83133 9.78444 6.74863 9.81581C6.66593 9.84719 6.59025 9.8946 6.52594 9.95531C6.46457 10.0128 6.4158 10.0824 6.38272 10.1597C6.34964 10.237 6.33296 10.3203 6.33375 10.4044C6.33375 10.6809 6.43312 10.9706 6.62906 11.2594C6.82312 11.5491 7.07812 11.7816 7.38844 11.9531C7.82156 12.1894 8.37656 12.3084 9.03844 12.3084C9.58969 12.3084 10.0734 12.2203 10.4784 12.0487C10.8862 11.8744 11.2012 11.6278 11.4141 11.3184C11.6278 11.0071 11.7404 10.6376 11.7366 10.26C11.7366 9.93375 11.6737 9.6525 11.5491 9.42469C11.4236 9.19768 11.2451 9.00437 11.0287 8.86125ZM9 0C4.02938 0 0 4.02938 0 9C0 13.9706 4.02938 18 9 18C13.9706 18 18 13.9706 18 9C18 4.02938 13.9706 0 9 0ZM11.1572 14.0391C10.7006 14.0391 10.2703 13.9219 9.89344 13.7128C9.61545 13.7669 9.33288 13.7939 9.04969 13.7934C6.50625 13.7934 4.44281 11.6691 4.44281 9.0525C4.44281 8.72437 4.47562 8.40562 4.53656 8.09812C4.29463 7.67546 4.1679 7.19669 4.16906 6.70969C4.16906 5.19187 5.36531 3.95906 6.84187 3.95906C7.36406 3.95906 7.85062 4.11469 8.26312 4.38187C8.51812 4.33594 8.7825 4.3125 9.04969 4.3125C11.595 4.3125 13.6575 6.435 13.6575 9.05344C13.6575 9.40125 13.6209 9.74156 13.5516 10.0697C13.7287 10.4381 13.8291 10.8516 13.8291 11.2913C13.8281 12.8081 12.6328 14.0391 11.1572 14.0391Z" fill="white"/>
</svg>
